<?xml version="1.0" standalone="no"?>
<!DOCTYPE svg PUBLIC "-//W3C//DTD SVG 20010904//EN"
 "http://www.w3.org/TR/2001/REC-SVG-20010904/DTD/svg10.dtd">
<svg version="1.0" xmlns="http://www.w3.org/2000/svg"
 width="260.000000pt" height="260.000000pt" viewBox="0 0 260.000000 260.000000"
 preserveAspectRatio="xMidYMid meet">
<metadata>
Created by potrace 1.11, written by Peter Selinger 2001-2013
</metadata>
<g transform="translate(0.000000,260.000000) scale(0.100000,-0.100000)"
fill="#000000" stroke="none">
<path d="M1081 2564 c-256 -43 -495 -168 -686 -359 -247 -247 -375 -556 -375
-905 0 -349 128 -658 375 -905 247 -247 556 -375 905 -375 349 0 658 128 905
375 247 247 375 556 375 905 0 349 -128 658 -375 905 -250 250 -560 377 -915
374 -69 -1 -163 -7 -209 -15z m-316 -522 c28 -13 65 -37 84 -55 68 -65 77
-134 35 -292 -33 -123 -35 -198 -7 -251 21 -41 82 -84 121 -84 19 0 22 -5 22
-40 0 -36 -2 -40 -25 -40 -41 0 -103 -37 -122 -73 -24 -46 -20 -133 12 -270
50 -215 25 -298 -108 -366 -63 -32 -75 -35 -183 -39 l-115 -5 3 59 3 59 80 5
c178 12 217 95 159 343 -15 66 -23 126 -20 146 8 51 50 107 112 148 l56 37
-29 20 c-64 47 -97 84 -119 131 -30 63 -30 79 2 200 34 131 31 213 -9 253 -25
25 -35 27 -130 32 l-102 5 -3 54 -3 53 118 -4 c95 -3 128 -8 168 -26z m1363
-24 l-3 -53 -100 -5 c-55 -3 -107 -9 -116 -13 -48 -23 -64 -141 -34 -244 8
-28 19 -73 25 -101 17 -92 -23 -174 -118 -242 l-53 -39 33 -17 c58 -30 89 -58
116 -103 31 -53 32 -104 3 -219 -12 -45 -21 -112 -21 -154 0 -125 44 -168 185
-177 l80 -6 3 -59 3 -58 -113 4 c-98 3 -121 7 -173 31 -71 34 -100 58 -128
112 -28 55 -26 123 8 273 34 153 32 237 -5 278 -32 33 -72 54 -105 54 -23 0
-25 4 -25 40 0 35 3 40 24 40 31 0 85 38 113 79 32 47 30 129 -3 251 -46 167
-30 255 57 315 71 50 125 64 242 65 l108 0 -3 -52z"/>
</g>
</svg>
